<svg version="1.0" xmlns="http://www.w3.org/2000/svg" width="93.333" height="93.333" viewBox="0 0 70 70"><path d="M26.1 4.4l-2.2 2.3 4.7.7c2.6.3 6.5.7 8.8.7 4.6.1 4.3.2-6.8 2-6.6 1-8.6 1.8-12.7 5.1C10.4 21.1 7.4 25.9 6 34.1c-1.9 11.3.3 18.1 9.2 27.5 5.7 6 9.6 7.4 21 7.4 8.6 0 14.6-2.5 21.4-8.8 9.2-8.6 11-23.7 4.4-36.1-1.9-3.5-3.9-6.5-4.6-6.8-1.5-.5-7.4 2.4-7.4 3.6 0 .5 1.1 2.2 2.4 3.8 3.3 4 5.4 8.5 6.2 13.2.5 3.4.1 5.2-2.5 10.4-1.7 3.4-4.1 7.3-5.4 8.7-2.8 3.2-8.7 5-16.4 5-5.6 0-6.3-.3-10.8-4.2C16.1 51.3 13 46.4 13 41.5c0-13.8 9.1-24.4 19.8-22.9 3.6.4 7.3-.1 14.6-2C52.8 15.2 58 14 59.1 14c2.9 0 2.3-1.5-1.8-4.8C49.7 3.2 46.2 2 36.9 2c-7.7 0-8.8.2-10.8 2.4z"/><path d="M26 21.7c0 .4 2.1 2.9 4.8 5.7 4.7 4.9 4.3 5.2-1.4.9-1.7-1.3-3.6-2.3-4.2-2.3-1.9 0-1.4 8.7.5 11.7C28 41.2 46 56.1 47.1 55.4c.5-.3.9-3.1.9-6.3 0-6.3-2.6-15.1-6.4-21.6-2.1-3.6-3.2-4.3-7.6-5.3-5.9-1.4-8-1.5-8-.5z"/></svg>