<?xml version="1.0" standalone="no"?>
<!DOCTYPE svg PUBLIC "-//W3C//DTD SVG 20010904//EN"
 "http://www.w3.org/TR/2001/REC-SVG-20010904/DTD/svg10.dtd">
<svg version="1.0" xmlns="http://www.w3.org/2000/svg"
 width="70.000000pt" height="70.000000pt" viewBox="0 0 70.000000 70.000000"
 preserveAspectRatio="xMidYMid meet">
<metadata>
Created by potrace 1.14, written by Peter Selinger 2001-2017
</metadata>
<g transform="translate(0.000000,70.000000) scale(0.100000,-0.100000)"
fill="#000000" stroke="none">
<path d="M261 656 l-22 -23 47 -7 c26 -3 65 -7 88 -7 46 -1 43 -2 -68 -20 -66
-10 -86 -18 -127 -51 -75 -59 -105 -107 -119 -189 -19 -113 3 -181 92 -275 57
-60 96 -74 210 -74 86 0 146 25 214 88 92 86 110 237 44 361 -19 35 -39 65
-46 68 -15 5 -74 -24 -74 -36 0 -5 11 -22 24 -38 33 -40 54 -85 62 -132 5 -34
1 -52 -25 -104 -17 -34 -41 -73 -54 -87 -28 -32 -87 -50 -164 -50 -56 0 -63 3
-108 42 -74 65 -105 114 -105 163 0 138 91 244 198 229 36 -4 73 1 146 20 54
14 106 26 117 26 29 0 23 15 -18 48 -76 60 -111 72 -204 72 -77 0 -88 -2 -108
-24z"/>
<path d="M260 483 c0 -4 21 -29 48 -57 47 -49 43 -52 -14 -9 -17 13 -36 23
-42 23 -19 0 -14 -87 5 -117 23 -35 203 -184 214 -177 5 3 9 31 9 63 0 63 -26
151 -64 216 -21 36 -32 43 -76 53 -59 14 -80 15 -80 5z"/>
</g>
</svg>
